<!--?xml version="1.0" encoding="UTF-8"?-->
<svg width="210mm" height="297mm" viewBox="0 0 2100 2970" xmlns="http://www.w3.org/2000/svg">

<style>

.title{
font-family:Arial;
font-size:58px;
font-weight:bold;
fill:#1f2937;
}

.subtitle{
font-family:Arial;
font-size:26px;
fill:#4b5563;
}

.box{
fill:white;
stroke:#374151;
stroke-width:4;
rx:20;
ry:20;
}

.green{
fill:#e9f8eb;
stroke:#2e7d32;
stroke-width:4;
}

.blue{
fill:#eef7ff;
stroke:#1565c0;
stroke-width:4;
}

.orange{
fill:#fff6e8;
stroke:#ef6c00;
stroke-width:4;
}

.grey{
fill:#f7f7f7;
stroke:#616161;
stroke-width:4;
}

.arrow{
stroke:#455a64;
stroke-width:8;
fill:none;
marker-end:url(#arrow);
}

.txt{
font-family:Arial;
font-size:28px;
fill:#222;
}

.small{
font-family:Arial;
font-size:22px;
fill:#444;
}

.caption{
font-family:Arial;
font-size:24px;
fill:#555;
}

</style>

<defs>

<marker id="arrow" markerWidth="16" markerHeight="16" refX="13" refY="8" orient="auto">

<polygon points="0,0 16,8 0,16" fill="#455a64"></polygon>

</marker>

</defs>

<text x="1050" y="90" text-anchor="middle" class="title">

LE CYCLE VERTUEUX DU BIOCHAR

</text>

<text x="1050" y="135" text-anchor="middle" class="subtitle">

Production • Valorisation • Séquestration • Économie circulaire

</text>

<rect x="760" y="190" width="580" height="130" class="blue"></rect>

<text x="1050" y="250" text-anchor="middle" class="txt">

ATMOSPHÈRE

</text>

<text x="1050" y="285" text-anchor="middle" class="small">

CO₂ disponible pour la photosynthèse

</text>

<rect x="120" y="520" width="700" height="220" class="green"></rect>

<text x="470" y="585" text-anchor="middle" class="txt">

FORÊTS

</text>

<text x="470" y="635" text-anchor="middle" class="small">

Branches

Éclaircies

Résidus forestiers

</text>

<rect x="1280" y="520" width="700" height="220" class="green"></rect>

<text x="1630" y="585" text-anchor="middle" class="txt">

AGRICULTURE

</text>

<text x="1630" y="635" text-anchor="middle" class="small">

Paille

Bambou

Miscanthus

Tailles

Coques

</text>

<line x1="1050" y1="320" x2="470" y2="520" class="arrow"></line>

<line x1="1050" y1="320" x2="1630" y2="520" class="arrow"></line>

<rect x="640" y="930" width="820" height="170" class="grey"></rect>

<text x="1050" y="1005" text-anchor="middle" class="txt">

BIOMASSE DURABLE

</text>

<text x="1050" y="1050" text-anchor="middle" class="small">

Collecte • Tri • Broyage • Séchage

</text>

<line x1="470" y1="740" x2="900" y2="930" class="arrow"></line>

<line x1="1630" y1="740" x2="1200" y2="930" class="arrow"></line>

<rect x="600" y="1250" width="900" height="240" class="orange"></rect>

<text x="1050" y="1335" text-anchor="middle" class="txt">

THERMOLYSE

</text>

<text x="1050" y="1385" text-anchor="middle" class="small">

Transformation thermique pauvre en oxygène

</text>

<text x="1050" y="1435" text-anchor="middle" class="small">

Procédé industriel

</text>

<line x1="1050" y1="1100" x2="1050" y2="1250" class="arrow"></line>

<rect x="90" y="1700" width="560" height="240" class="green"></rect>

<text x="370" y="1780" text-anchor="middle" class="txt">

BIOCHAR

</text>

<text x="370" y="1830" text-anchor="middle" class="small">

Carbone stable

Très forte durée de vie

</text>

<rect x="770" y="1700" width="560" height="240" class="blue"></rect>

<text x="1050" y="1780" text-anchor="middle" class="txt">

GAZ

</text>

<text x="1050" y="1830" text-anchor="middle" class="small">

Valorisation énergétique

Synthèse

</text>

<rect x="1450" y="1700" width="560" height="240" class="orange"></rect>

<text x="1730" y="1780" text-anchor="middle" class="txt">

CHALEUR

</text>

<text x="1730" y="1830" text-anchor="middle" class="small">

Cogénération

Industrie

Réseaux

</text>

<line x1="1050" y1="1490" x2="370" y2="1700" class="arrow"></line>

<line x1="1050" y1="1490" x2="1050" y2="1700" class="arrow"></line>

<line x1="1050" y1="1490" x2="1730" y2="1700" class="arrow"></line>

<rect x="120" y="2240" width="520" height="170" class="green"></rect>
<text x="380" y="2325" text-anchor="middle" class="txt">AGRICULTURE</text>

<rect x="790" y="2240" width="520" height="170" class="green"></rect>
<text x="1050" y="2325" text-anchor="middle" class="txt">MATÉRIAUX</text>

<rect x="1460" y="2240" width="520" height="170" class="green"></rect>
<text x="1720" y="2325" text-anchor="middle" class="txt">FILTRATION</text>

<line x1="370" y1="1940" x2="380" y2="2240" class="arrow"></line>
<line x1="370" y1="1940" x2="1050" y2="2240" class="arrow"></line>
<line x1="370" y1="1940" x2="1720" y2="2240" class="arrow"></line>

<rect x="520" y="2610" width="1060" height="170" class="blue"></rect>

<text x="1050" y="2685" text-anchor="middle" class="txt">

SÉQUESTRATION DURABLE DU CARBONE

</text>

<text x="1050" y="2735" text-anchor="middle" class="small">

Stockage sur plusieurs décennies à plusieurs siècles selon les conditions d'utilisation

</text>

<line x1="1050" y1="2410" x2="1050" y2="2610" class="arrow"></line>

<text x="120" y="2910" class="caption">

Atlas mondial de la valorisation économique du biochar — Eric Jacob — Version 1.0

</text>

</svg>