<?xml version="1.0" encoding="UTF-8"?>
<svg xmlns="http://www.w3.org/2000/svg" width="1400" height="1100" viewBox="0 0 1400 1100">
<style>text{font-family:Arial,sans-serif;fill:#222}.title{font-size:30px;font-weight:bold}.h{font-size:20px;font-weight:bold}.b{font-size:16px}.small{font-size:13px;fill:#555}.box{fill:#fff;stroke:#777;stroke-width:2}</style>
<rect width="100%" height="100%" fill="#f8fafb"/>
<text x="700" y="45" text-anchor="middle" class="title">Chapitre 2 — Valorisation mondiale du biochar (v1.0)</text>
<rect x="40" y="80" width="1320" height="120" class="box"/>
<text x="60" y="110" class="h">Lecture</text><text x="60" y="145" class="b">🟢 Marchés matures • 🟡 Émergents • ⚪ Potentiel</text>
<rect x="40" y="230" width="620" height="720" class="box"/>
<text x="60" y="265" class="h">Régions</text>
<text x="60" y="305" class="b">🟢 Europe du Nord, Allemagne, France</text>
<text x="60" y="335" class="b">🟢 États-Unis, Canada</text>
<text x="60" y="365" class="b">🟢 Japon, Australie</text>
<text x="60" y="425" class="b">🟡 Brésil, Inde, Thaïlande, Afrique du Sud</text>
<text x="60" y="485" class="b">⚪ Afrique, Asie centrale : potentiel important</text>
<rect x="710" y="230" width="650" height="350" class="box"/>
<text x="730" y="265" class="h">Applications</text>
<text x="730" y="305" class="b">• Construction bas carbone</text>
<text x="730" y="335" class="b">• Filtration</text>
<text x="730" y="365" class="b">• Agriculture</text>
<text x="730" y="395" class="b">• Composites</text>
<text x="730" y="425" class="b">• Crédits carbone</text>
<rect x="710" y="610" width="650" height="340" class="box"/>
<text x="730" y="645" class="h">Facteurs de valeur</text>
<text x="730" y="685" class="b">✓ Intrants ligneux ✓ Procédé ✓ Certification</text>
<text x="730" y="715" class="b">✓ Qualité ✓ Débouchés industriels</text>
<rect x="40" y="980" width="1320" height="70" fill="#f0f0f0" stroke="#bbb"/>
<text x="55" y="1015" class="small">Atlas mondial du Biochar — ch2_fr_carte.svg — Eric Jacob — CC BY 4.0</text>
</svg>